# xmcd CD database file
#
# Track frame offsets:
#	150
#	34165
#	71718
#	104488
#	128623
#	141978
#	168960
#
# Disc length: 2658 seconds
#
# Revision: 0
# Processed by: cddbd v1.5.1PL2 Copyright (c) Steve Scherf et al.
# Submitted via: CDex 1.51
#
DISCID=610a6007
DTITLE=Junior Mance - Holy Mama
DYEAR=1976
DGENRE=Jazz
TTITLE0=By The Time I Get Phoenix
TTITLE1=God Bless The Child
TTITLE2=That Mellow Feeling
TTITLE3=Holy Mama
TTITLE4=Miss Otis Regrets
TTITLE5=The Good Old Days
TTITLE6=Blues For The Schnug
EXTD=YEAR: 1976
EXTT0=
EXTT1=
EXTT2=
EXTT3=
EXTT4=
EXTT5=
EXTT6=
PLAYORDER=
